<svg width="495" height="351" viewBox="0 -35 803 640" fill="none" xmlns="http://www.w3.org/2000/svg">
<path d="M613.192 117.503C613.192 117.503 503.945 132.33 505.748 229.236C506.731 261.779 521.098 292.644 545.739 315.155L598.167 363.696" stroke="#F0EBEB" stroke-width="20"/>
<path d="M638.573 247.109L702.281 297.106" stroke="#F6F2F2" stroke-width="20"/>
<path d="M505.748 404.206C505.748 404.206 526.969 480.901 612.822 487.697" stroke="#F0EBEB" stroke-width="20"/>
<path d="M133.671 120.018C141.004 120.708 148.232 122.188 155.215 124.431C205.331 140.052 238.433 187.314 238.433 237.621V354.032" stroke="#F0EBEB" stroke-width="20"/>
<path d="M107.134 247.152L45.1366 300.46L100.06 353.988" stroke="#F0EBEB" stroke-width="20"/>
<path d="M136.908 482.313L213.884 487.653" stroke="#F0EBEB" stroke-width="20"/>
<path d="M130.019 250.109C142.684 250.109 152.95 240.309 152.95 228.221C152.95 216.133 142.684 206.333 130.019 206.333C117.354 206.333 107.088 216.133 107.088 228.221C107.088 240.309 117.354 250.109 130.019 250.109Z" stroke="#F0EBEB" stroke-width="20"/>
<path d="M121.189 395.821C133.853 395.821 144.12 386.022 144.12 373.933C144.12 361.845 133.853 352.046 121.189 352.046C108.524 352.046 98.2573 361.845 98.2573 373.933C98.2573 386.022 108.524 395.821 121.189 395.821Z" stroke="#F0EBEB" stroke-width="20"/>
<path d="M238.526 400.896C251.191 400.896 261.457 391.097 261.457 379.008C261.457 366.92 251.191 357.121 238.526 357.121C225.861 357.121 215.595 366.92 215.595 379.008C215.595 391.097 225.861 400.896 238.526 400.896Z" stroke="#F0EBEB" stroke-width="20"/>
<path d="M240.329 509.541C252.993 509.541 263.26 499.742 263.26 487.653C263.26 475.565 252.993 465.766 240.329 465.766C227.664 465.766 217.398 475.565 217.398 487.653C217.398 499.742 227.664 509.541 240.329 509.541Z" stroke="#F0EBEB" stroke-width="20"/>
<path d="M502.928 400.896C515.592 400.896 525.859 391.097 525.859 379.008C525.859 366.92 515.592 357.121 502.928 357.121C490.263 357.121 479.997 366.92 479.997 379.008C479.997 391.097 490.263 400.896 502.928 400.896Z" stroke="#F0EBEB" stroke-width="20"/>
<path d="M618.971 400.896C631.636 400.896 641.902 391.097 641.902 379.008C641.902 366.92 631.636 357.121 618.971 357.121C606.307 357.121 596.04 366.92 596.04 379.008C596.04 391.097 606.307 400.896 618.971 400.896Z" stroke="#F0EBEB" stroke-width="20"/>
<path d="M618.971 250.109C631.636 250.109 641.902 240.309 641.902 228.221C641.902 216.133 631.636 206.333 618.971 206.333C606.307 206.333 596.04 216.133 596.04 228.221C596.04 240.309 606.307 250.109 618.971 250.109Z" stroke="#F0EBEB" stroke-width="20"/>
<path d="M745 380.465C745 439.95 691.925 488.182 626.414 488.182C624.057 488.182 621.791 488.182 619.48 488.182C619.48 489.859 619.48 491.536 619.48 493.257C619.48 552.742 566.405 600.975 500.894 600.975C480.51 601.154 460.416 596.359 442.518 587.045C424.621 577.731 409.513 564.207 398.628 547.756C389.204 532.851 384.306 515.74 384.481 498.332V112.472C384.268 96.736 388.279 81.21 396.132 67.3726C406.668 49.7792 421.931 35.1876 440.347 25.1033C458.763 15.019 479.664 9.80713 500.894 10.0055C566.405 10.0055 619.48 58.2821 619.48 117.811H623.779C689.244 117.811 742.365 166 742.365 225.529C742.344 239.853 739.248 254.021 733.268 267.159C727.289 280.296 718.552 292.125 707.598 301.916C719.314 311.727 728.708 323.805 735.156 337.348C741.605 350.891 744.96 365.589 745 380.465Z" stroke="#F0EBEB" stroke-width="20"/>
<path d="M10 377.42C10.0362 391.369 12.9589 405.174 18.6005 418.042C24.242 430.91 32.4912 442.588 42.8743 452.404C53.2574 462.22 65.5698 469.982 79.1045 475.243C92.6392 480.505 107.13 483.163 121.743 483.064C123.962 483.064 126.135 483.064 128.308 483.064C128.308 484.697 128.308 486.374 128.308 488.05C128.523 511.332 136.717 533.907 151.638 552.326C166.559 570.744 187.386 583.995 210.939 590.053C234.491 596.111 259.474 594.643 282.07 585.874C304.666 577.105 323.634 561.516 336.076 541.49C344.998 526.743 349.597 509.976 349.391 492.949V114.635C349.561 99.2926 345.8 84.1434 338.434 70.5061C326.82 49.4412 308.154 32.6921 285.411 22.9271C262.667 13.162 237.154 10.9428 212.936 16.6228C188.718 22.3029 167.188 35.5555 151.775 54.2695C136.363 72.9835 127.956 96.0822 127.892 119.886H123.824C109.206 119.816 94.7179 122.504 81.1918 127.795C67.6658 133.086 55.3683 140.876 45.0062 150.718C34.644 160.559 26.4213 172.258 20.8105 185.142C15.1997 198.026 12.3114 211.842 12.3116 225.794C12.2751 239.755 15.1597 253.582 20.7964 266.464C26.4331 279.346 34.7083 291.024 45.1365 300.813C34.0868 310.598 25.265 322.449 19.2202 335.628C13.1754 348.808 10.0369 363.033 10 377.42Z" stroke="#F0EBEB" stroke-width="20"/>
</svg>
